<svg width="24" height="24" viewBox="0 0 48 48" fill="currentColor"><path fill-rule="evenodd" clip-rule="evenodd" d="M7.26 34.001c1.819.043 2.457 1.349 2.446 2.02-.012.67-.1 1.19-.812 1.67.708.388 1.076.972 1.106 1.75-.032 1.462-.863 2.31-2.491 2.543-1.635.121-2.786-.442-3.454-1.69-.145-.36-.004-.65.422-.87.453-.201.817-.105 1.093.288.254.402.479.649.674.74.724.336 1.485.263 1.924-.23.29-.337.272-.91.07-1.203-.28-.404-.922-.59-1.652-.508-1.016.099-.92-.758-.919-.778-.009-.154.085-.664.774-.665l.145.006c.822.074 1.52-.111 1.513-.945-.044-.516-.37-.778-.976-.787a1.256 1.256 0 00-1.04.539l-.094.14c-.278.487-.717.516-1.1.35l-.086-.041c-.283-.111-.532-.53-.308-.896l.11-.175c.308-.456 1.073-1.295 2.655-1.258zM43 36a1 1 0 011 1v2a1 1 0 01-1 1H15a1 1 0 01-1-1v-2a1 1 0 011-1h28zM7.201 20.002l.248.011c.444.019 2.18.338 2.347 1.911.104.98-.21 1.8-.94 2.465l-2.54 2.195h2.949c.478.018.723.26.735.727-.024.419-.25.647-.675.684l-.12.005-4.363-.004c-.378.028-.63-.103-.76-.394-.194-.436-.012-.803.214-1.07.226-.266 2.75-2.534 3.153-2.898.268-.243.465-.481.591-.714.235-.726.1-1.202-.404-1.428-1.215-.323-1.475.294-1.686.894-.233.647-.746.662-1.108.576l-.121-.043c-.293-.12-.631-.383-.38-.995.686-1.843 2.184-1.941 2.86-1.922zM43 22a1 1 0 011 1v2a1 1 0 01-1 1H15a1 1 0 01-1-1v-2a1 1 0 011-1h28zM6.994 6h.038a.93.93 0 01.7.26.868.868 0 01.264.59v6.149a1.001 1.001 0 11-2.004 0V8.895c-.198.14-.398.275-.598.405a.928.928 0 01-1.234-.204.743.743 0 01.124-1.044l.057-.04c.521-.336.887-.6 1.097-.79l.633-.607A1 1 0 016.994 6zM43 8a1 1 0 011 1v2a1 1 0 01-1 1H15a1 1 0 01-1-1V9a1 1 0 011-1h28z" fill="currentColor"/></svg>